<?xml version="1.0" standalone="no"?>
<!DOCTYPE svg PUBLIC "-//W3C//DTD SVG 1.1//EN" "http://www.w3.org/Graphics/SVG/1.1/DTD/svg11.dtd" >
<svg xmlns="http://www.w3.org/2000/svg">
<metadata></metadata>
<defs>
<font id="solomon_normalregular" horiz-adv-x="1218" >
<font-face units-per-em="2048" ascent="1536" descent="-512" />
<missing-glyph horiz-adv-x="526" />
<glyph unicode="&#xfb01;" horiz-adv-x="1046" d="M82 891v147h102v88q0 166 104 247t269 63v-142q-102 6 -157.5 -37.5t-55.5 -130.5v-88h549v-1038h-162v891h-387v-891h-160v891h-102zM729 1253h166v189h-166v-189z" />
<glyph unicode="&#xfb02;" horiz-adv-x="1081" d="M82 885v147h102v94q0 166 104 247t269 63v-142q-102 6 -157.5 -37.5t-55.5 -130.5v-94h205v-147h-205v-885h-160v885h-102zM719 305q0 -170 84 -248t244 -61v141q-96 -7 -131 33.5t-35 134.5v1139h-162v-1139z" />
<glyph unicode="&#xfb03;" horiz-adv-x="1671" d="M84 887v137h102v102q0 166 104 247t269 63v-142q-102 6 -157.5 -37.5t-55.5 -130.5v-102h453v102q0 166 103.5 247t268.5 63v-142q-102 6 -157.5 -37.5t-55.5 -130.5v-102h562v-1024h-162v887h-400v-887h-159v887h-453v-887h-160v887h-102zM1356 1253h166v189h-166v-189z " />
<glyph unicode="&#xfb04;" horiz-adv-x="1720" d="M84 887v137h102v102q0 166 104 247t269 63v-142q-102 6 -157.5 -37.5t-55.5 -130.5v-102h453v102q0 166 103.5 247t268.5 63v-142q-102 6 -157.5 -37.5t-55.5 -130.5v-102h201v-137h-201v-887h-159v887h-453v-887h-160v887h-102zM1358 305q0 -170 84 -248t244 -61v141 q-96 -7 -131 33.5t-35 134.5v1139h-162v-1139z" />
<glyph horiz-adv-x="2048" />
<glyph horiz-adv-x="2048" />
<glyph unicode="&#xd;" horiz-adv-x="2048" />
<glyph unicode=" "  horiz-adv-x="526" />
<glyph unicode="&#x09;" horiz-adv-x="526" />
<glyph unicode="&#xa0;" horiz-adv-x="526" />
<glyph unicode="!" horiz-adv-x="632" d="M223 1434h187l-9 -1086h-168zM225 0v211h185v-211h-185z" />
<glyph unicode="&#x22;" horiz-adv-x="700" d="M129 1061v395h162v-395h-162zM410 1061v395h161v-395h-161z" />
<glyph unicode="#" horiz-adv-x="1206" d="M109 420l4 153h206l43 287h-184l4 156h205l66 418h151l-63 -418h260l65 418h148l-64 -418h168l-4 -156h-188l-45 -287h166l-5 -153h-186l-65 -418h-146l64 418h-260l-68 -418h-150l64 418h-186zM473 573h260l43 287h-260z" />
<glyph unicode="$" horiz-adv-x="1130" d="M98 272l133 70q40 -103 129.5 -165t198.5 -62q129 -2 209.5 62t87.5 179q3 44 -6.5 82t-24.5 64.5t-44 50.5t-52.5 38t-62 29t-61.5 21.5t-62 17.5q-48 13 -84.5 25t-82 31.5t-78.5 41t-66 53.5t-53.5 69.5t-33 88t-10.5 109.5q2 82 31.5 151t78 115t109.5 75.5t131 39.5 v187h150v-185q121 -18 217 -88.5t139 -185.5l-129 -64q-38 91 -120 141t-175 52q-107 0 -184 -62.5t-84 -183.5q-2 -38 7.5 -71t23.5 -55.5t41 -43.5t48 -32.5t57.5 -24.5t55 -18.5t54.5 -14.5q76 -19 132 -39t118.5 -56.5t101 -83t62.5 -119t20 -163.5q-4 -84 -37 -153.5 t-87 -115t-120 -73t-141 -37.5v-186h-150v186q-128 18 -233 96t-154 207z" />
<glyph unicode="%" horiz-adv-x="1708" d="M94 1110q0 146 103.5 248t248.5 102t249 -102t104 -248q0 -144 -104 -246t-249 -102t-248.5 102t-103.5 246zM238 1110q0 -90 60.5 -153.5t147.5 -63.5q88 0 148.5 63.5t60.5 153.5q0 91 -60 155t-149 64q-87 0 -147.5 -64t-60.5 -155zM307 -76l928 1596h176l-930 -1596 h-174zM901 324q0 145 104 246.5t250 101.5q145 0 249 -102t104 -246t-104 -246.5t-249 -102.5q-146 0 -250 102t-104 247zM1049 324q0 -90 59.5 -152.5t146.5 -62.5q86 0 145.5 62.5t59.5 152.5t-59.5 154.5t-145.5 64.5q-87 0 -146.5 -64.5t-59.5 -154.5z" />
<glyph unicode="&#x26;" horiz-adv-x="1335" d="M109 401q0 62 16.5 115.5t40 92t65 77t76.5 63t88 58.5q-68 81 -107.5 155.5t-39.5 159.5q0 102 51.5 179.5t132.5 116t176 38.5q132 0 230 -89t98 -224q0 -57 -16.5 -106.5t-41 -85t-65 -70t-75.5 -56t-85 -49.5l279 -303q44 76 102 178l142 -73l-134 -232l256 -291 h-215l-133 154q-87 -112 -184 -168.5t-227 -56.5q-184 0 -307 114.5t-123 302.5zM274 406q0 -117 81 -189t200 -72q155 0 289 183l-344 366q-38 -24 -64.5 -42.5t-59.5 -48t-53.5 -57t-34.5 -64.5t-14 -76zM418 1124q0 -55 35.5 -113.5t93.5 -127.5q39 21 62 34t59 39t56 50 t36 58.5t16 72.5q0 71 -50.5 117t-123.5 46q-77 0 -130.5 -50t-53.5 -126z" />
<glyph unicode="'" horiz-adv-x="415" d="M127 1061v395h162v-395h-162z" />
<glyph unicode="(" horiz-adv-x="778" d="M143 721q0 313 168 599.5t441 430.5v-188q-135 -80 -237 -220.5t-153 -301.5t-51 -320q0 -158 51 -318.5t153 -301t237 -220.5v-188q-273 144 -441 430t-168 598z" />
<glyph unicode=")" horiz-adv-x="776" d="M25 -119q134 81 235.5 221t153 300.5t51.5 318.5q0 159 -51.5 320t-153 301t-235.5 221v188q180 -95 318.5 -259t213 -364.5t74.5 -406.5q0 -205 -74.5 -405t-213 -364t-318.5 -259v188z" />
<glyph unicode="*" horiz-adv-x="942" d="M70 1102l45 135l278 -94l-2 295h144l-7 -295l281 94l45 -135l-285 -88l181 -238l-119 -84l-170 244l-170 -244l-117 84l178 238z" />
<glyph unicode="+" horiz-adv-x="1314" d="M158 594v162h430v418h157v-418h412v-162h-412v-422h-157v422h-430z" />
<glyph unicode="," horiz-adv-x="518" d="M45 -223l133 442h189l-168 -442h-154z" />
<glyph unicode="-" horiz-adv-x="917" d="M184 557v162h553v-162h-553z" />
<glyph unicode="." horiz-adv-x="520" d="M156 -4v223h204v-223h-204z" />
<glyph unicode="/" horiz-adv-x="843" d="M55 -133l590 1726h172l-588 -1726h-174z" />
<glyph unicode="0" horiz-adv-x="1230" d="M127 406v628q0 102 40.5 185t108.5 135t152.5 79.5t177.5 28.5q75 1 147 -15t135.5 -50.5t111.5 -84.5t76 -121.5t28 -156.5v-628q0 -183 -121 -297q-68 -65 -165 -99.5t-202 -34.5q-105 -2 -203 33t-167 101q-119 116 -119 297zM295 406q0 -126 96 -201.5t225 -75.5 q82 0 154 31.5t119 96.5t47 149v628q0 85 -49 149.5t-123 95.5t-156 30t-152 -32.5t-115.5 -95t-45.5 -147.5v-628z" />
<glyph unicode="1" horiz-adv-x="647" d="M96 1276v160h357v-1436h-168v1276h-189z" />
<glyph unicode="2" horiz-adv-x="1144" d="M100 123l648 700q115 121 112 230q0 100 -77.5 169.5t-209.5 73.5q-112 4 -196 -47.5t-125 -150.5l-139 65q59 149 182.5 226.5t282.5 72.5q196 -7 316.5 -125t123.5 -282q0 -177 -156 -350l-504 -551h670v-154h-878z" />
<glyph unicode="3" horiz-adv-x="1124" d="M80 272l127 70q48 -98 142 -154.5t196 -56.5q115 0 204 77t89 208q0 124 -79.5 204t-191.5 80h-114v150h114q104 0 169 52.5t65 160.5q0 114 -74.5 177t-179.5 63q-89 0 -172 -47t-123 -130l-121 72q54 123 166.5 191.5t239.5 68.5q63 0 124.5 -15t117 -47.5t98 -78 t67.5 -111.5t25 -143q0 -90 -43.5 -168t-116.5 -111q197 -107 197 -370q-1 -102 -41.5 -187t-106.5 -139t-148.5 -83.5t-170.5 -29.5q-93 0 -181 32.5t-162.5 101t-115.5 163.5z" />
<glyph unicode="4" horiz-adv-x="1097" d="M45 422l678 1014h176v-1008h115v-156h-115v-272h-168v272h-575zM244 430l487 -2l4 768z" />
<glyph unicode="5" horiz-adv-x="1171" d="M92 272l137 70q44 -93 142.5 -149t201.5 -56q106 0 183.5 50t113.5 125t35 161q0 84 -34.5 155t-110 118t-180.5 47q-103 0 -181.5 -17t-158.5 -63l-90 -4l110 725h717v-160h-580l-59 -371q116 45 246 45q96 -1 176.5 -28t137 -73t96 -106.5t58.5 -129t19 -140.5 q0 -93 -32.5 -180t-93.5 -157t-158.5 -112t-217.5 -42q-151 0 -281.5 75.5t-195.5 216.5z" />
<glyph unicode="6" horiz-adv-x="1214" d="M119 471q0 147 82 277l426 686h194l-305 -494q62 8 100 8q100 0 183.5 -27t141 -72.5t97 -107t58 -129.5t18.5 -141q0 -93 -32 -180t-92.5 -157t-157.5 -112t-216 -42t-215.5 42t-156.5 112t-92.5 157t-32.5 180zM285 473q0 -86 36 -161t113 -125t182 -50q106 0 183.5 50 t113.5 125t35 161q0 62 -21.5 118.5t-62 102t-105 72.5t-143.5 27q-139 0 -234.5 -90t-96.5 -230z" />
<glyph unicode="7" horiz-adv-x="1005" d="M72 1274v164h846l55 -115l-690 -1323h-191l670 1274h-690z" />
<glyph unicode="8" horiz-adv-x="1181" d="M117 414q-1 118 51 210t147 152q-141 101 -141 297q0 91 35 166t93.5 122.5t131.5 73t152 25.5q107 0 199 -43t152 -133t60 -211q0 -89 -34.5 -168t-104.5 -129q95 -61 147.5 -152.5t51.5 -209.5q-1 -138 -70.5 -241t-174.5 -152.5t-226 -49.5q-89 0 -171.5 29.5t-149 84 t-107 140t-41.5 189.5zM290 365q5 -48 29.5 -91t59 -76t88.5 -52.5t119 -18.5q66 1 121 21t90.5 53.5t60 76.5t30 90.5t0 95t-30.5 90.5t-60.5 76t-90.5 52.5t-120 19.5q-64 0 -118 -20t-88.5 -53.5t-59 -76.5t-30 -91t-0.5 -96zM344.5 1075.5q0.5 -59.5 26.5 -110.5 t82.5 -85t132.5 -34q77 0 134 34t83 85t26.5 110.5t-24.5 110.5t-82.5 85t-136.5 34q-78 0 -135 -34t-82 -85t-24.5 -110.5z" />
<glyph unicode="9" d="M104 961q0 93 32 180t92.5 157t157.5 112t216 42t215.5 -42t157 -112t93 -157t32.5 -180q0 -147 -82 -277l-426 -686h-195l305 494q-70 -9 -100 -9q-124 0 -222 41t-157 109.5t-89 152t-30 175.5zM270 958q0 -62 21.5 -118.5t62 -101.5t105 -72t143.5 -27q140 0 235.5 90 t96.5 229q0 63 -21.5 122.5t-62 107.5t-105 77t-143.5 29q-106 0 -183.5 -50t-113.5 -125t-35 -161z" />
<glyph unicode=":" horiz-adv-x="598" d="M188 -4v223h205v-223h-205zM188 791v223h205v-223h-205z" />
<glyph unicode=";" horiz-adv-x="600" d="M78 -246l133 443h188l-168 -443h-153zM188 791v223h205v-223h-205z" />
<glyph unicode="&#x3c;" horiz-adv-x="1013" d="M74 524v123l821 436v-184l-627 -313l627 -312v-178z" />
<glyph unicode="=" horiz-adv-x="1280" d="M197 291v162h886v-162h-886zM197 690v162h886v-162h-886z" />
<glyph unicode="&#x3e;" horiz-adv-x="1011" d="M121 96v185l627 305l-627 311v186l821 -436v-123z" />
<glyph unicode="?" horiz-adv-x="1064" d="M43 1270l18 22q67 87 173.5 132.5t224.5 45.5q90 0 173 -28t148.5 -80.5t105 -135.5t38.5 -184q-1 -182 -111 -299.5t-293 -150.5l-14 -295h-146l-12 424q104 1 198 41.5t153 115.5t57 166q-3 123 -92.5 198t-208.5 75q-83 0 -161.5 -38t-129.5 -101zM350 2v191h178v-191 h-178z" />
<glyph unicode="@" horiz-adv-x="1644" d="M123 444q2 114 35 224.5t98 208.5t153.5 173t209.5 118.5t258 43.5q144 0 270.5 -46.5t216.5 -127t142.5 -192.5t52.5 -238q0 -121 -42 -232t-109 -189t-153 -124.5t-172 -46.5q-53 0 -90.5 30.5t-40.5 96.5q-36 -58 -101 -88t-136 -30q-115 0 -197 93.5t-82 211.5 q0 85 20 168t60 157t95.5 131t132 90t163.5 33q64 0 125 -37.5t72 -101.5l29 72l161 -6l-178 -553q-23 -67 -19 -87q4 -22 31 -22q59 0 124 66t108 168.5t43 199.5q0 155 -86 264l-4 7q-71 89 -186 137.5t-246 48.5q-134 0 -249 -54.5t-190 -143t-118 -199t-45 -226.5 q-1 -87 17.5 -166t60.5 -150t105 -123.5t157 -83t210 -30.5q104 0 211 43l70 -131q-147 -57 -281 -57q-147 0 -267 39t-201 105t-136 156t-79 190.5t-23 209.5zM592 334q0 -69 38 -112.5t101 -43.5q78 0 149.5 68.5t110.5 161.5t39 174t-34 127.5t-97 46.5q-60 1 -112 -26 t-87 -71.5t-60 -100.5t-36.5 -113.5t-11.5 -110.5z" />
<glyph unicode="A" horiz-adv-x="1273" d="M16 0l514 1444h207l520 -1444h-178l-166 459h-555l-161 -459h-181zM410 614h448l-223 652z" />
<glyph unicode="B" horiz-adv-x="1226" d="M197 0v1442h430q115 0 210.5 -44.5t153.5 -132t58 -202.5q0 -84 -42 -159.5t-124 -131.5q79 -39 133 -98q53 -58 76 -124q22 -63 23 -132q0 -3 -1 -6q0 -104 -38.5 -184.5t-106.5 -129.5t-155 -73.5t-189 -24.5h-428zM365 156h262q79 0 143 22.5t103 59.5q39 36 61 84 q21 46 21 95q-1 51 -23 99t-60.5 84.5t-102.5 59t-142 22.5h-262v-526zM365 840h262q64 0 116 19.5t84 51t49 71.5q18 42 18 85q0 41 -18 81t-49.5 71.5t-83.5 51t-116 19.5h-262v-450z" />
<glyph unicode="C" horiz-adv-x="1472" d="M98 713q0 113 29.5 221t91 203t147 167t205 114t258.5 42q151 0 285 -57t236 -160l-109 -113q-81 86 -189 132q-101 44 -209 43h-14q-134 -2 -242.5 -53t-177 -135t-105 -188t-36.5 -216q0 -89 23 -173t70 -158.5t112.5 -130t157.5 -88t198 -32.5q126 0 244.5 55 t200.5 152l119 -98q-103 -124 -250.5 -194.5t-313.5 -70.5q-139 0 -258.5 41t-205 111.5t-147 164.5t-91 201t-29.5 220z" />
<glyph unicode="D" horiz-adv-x="1464" d="M197 0v1444h442h7q133 0 247 -38q117 -39 200.5 -107t143.5 -159t89.5 -193.5t31.5 -211.5v-15q0 -103 -25 -202q-27 -106 -85.5 -200t-142.5 -165t-203.5 -112t-260.5 -41h-444zM365 156h274h11q130 0 234 46q110 48 176.5 131t100.5 186q31 95 31 196v18 q-2 107 -38.5 205.5t-103 177t-172 125.5t-235.5 47h-278v-1132z" />
<glyph unicode="E" horiz-adv-x="1067" d="M197 2v1440h768v-158h-598v-485h589v-158h-589l-2 -479h600v-160h-768z" />
<glyph unicode="F" horiz-adv-x="1040" d="M197 2v1434h768v-158h-598v-487h589v-158h-589v-631h-170z" />
<glyph unicode="G" horiz-adv-x="1660" d="M100 715q0 141 48 273t137.5 238t231 170t314.5 64q167 0 314 -69t248 -191l-119 -100q-79 95 -198 150t-245 55q-132 0 -241 -51.5t-178 -136t-106.5 -189t-37.5 -213.5q0 -110 37.5 -213.5t106.5 -187.5t178 -134.5t241 -50.5q125 0 243 54t200.5 157t95.5 231h-641 v156h827q0 -154 -52.5 -292t-146 -240.5t-230 -162t-296.5 -59.5q-139 0 -258.5 41.5t-205 112.5t-146.5 165.5t-90.5 202t-30.5 220.5z" />
<glyph unicode="H" horiz-adv-x="1388" d="M197 0v1440h170v-649h657v649h170v-1440h-170v639h-657v-639h-170z" />
<glyph unicode="I" horiz-adv-x="561" d="M197 0v1440h168v-1440h-168z" />
<glyph unicode="J" horiz-adv-x="1095" d="M59 340l156 33q15 -78 62 -135t107 -82q56 -23 117 -23h10q67 2 122 30.5t91 90.5t36 147v873h-271v160h441v-1033q0 -99 -33 -180t-88 -133t-126.5 -82t-148.5 -34q-13 -1 -26 -1q-63 0 -127 17q-77 22 -141.5 66t-113 118t-67.5 168z" />
<glyph unicode="K" horiz-adv-x="1269" d="M197 0v1444h170v-713l657 713h186l-575 -647l598 -797h-199l-512 686l-155 -156v-530h-170z" />
<glyph unicode="L" horiz-adv-x="958" d="M197 0v1434h170v-1276h553v-158h-723z" />
<glyph unicode="M" horiz-adv-x="1722" d="M197 0v1442h215l450 -1028l449 1028h217v-1442h-170v1130l-422 -935h-145l-431 946v-1141h-163z" />
<glyph unicode="N" horiz-adv-x="1480" d="M197 0v1442h180l737 -1204v1204h170v-1442h-215l-704 1155v-1155h-168z" />
<glyph unicode="O" horiz-adv-x="1658" d="M98 715q0 149 58 286.5t156 238.5t233.5 161.5t283.5 60.5t284 -60.5t234 -161.5t156 -238.5t58 -286.5q0 -120 -37 -233t-105 -204.5t-158 -161t-201.5 -107.5t-230.5 -38q-148 0 -283.5 59.5t-233.5 159.5t-156 237.5t-58 287.5zM268 715q0 -140 48 -254.5 t127.5 -185.5t179 -109.5t206.5 -38.5t206.5 38.5t179.5 109.5t128 185.5t48 254.5q0 139 -48.5 254t-128.5 188t-180 112q-98 38 -202 38h-5q-107 -1 -206 -40.5t-178.5 -112.5t-127 -187t-47.5 -252z" />
<glyph unicode="P" horiz-adv-x="1173" d="M197 0v1440h430q116 0 210.5 -40t152.5 -106t89 -147.5t31 -169.5t-31 -168.5t-89 -144.5t-151.5 -102t-209.5 -38h-264v-524h-168zM365 680h262q148 0 231.5 89.5t83.5 207.5q0 56 -20.5 109.5t-58.5 98t-99.5 72t-136.5 27.5h-262v-604z" />
<glyph unicode="Q" horiz-adv-x="1683" d="M100 713q0 149 58 286.5t156 238.5t233.5 161.5t283.5 60.5t284 -60.5t234 -161.5t156 -238.5t58 -286.5q0 -261 -162 -463l135 -135l-113 -113l-133 135q-202 -168 -459 -168q-198 0 -366.5 101.5t-266.5 272.5t-98 370zM270 713q0 -139 48 -253.5t127.5 -186t179 -110 t206.5 -38.5q198 0 351 119l-230 231l113 113l225 -228q103 150 103 353q0 112 -32 209t-86.5 166.5t-127 119.5t-153.5 74q-79 23 -160 23h-7q-107 0 -206 -39.5t-177.5 -112t-126 -187t-47.5 -253.5z" />
<glyph unicode="R" horiz-adv-x="1241" d="M197 0v1436h456q106 0 192.5 -24.5t153.5 -75t105 -134.5q39 -86 39 -199q-1 -199 -119 -303q-120 -104 -315 -114l460 -586h-211l-448 584h-143v-584h-170zM367 729h288q152 0 235 67.5t83 209.5t-85 208t-233 66h-288v-551z" />
<glyph unicode="S" horiz-adv-x="1126" d="M82 279l133 71q40 -103 129.5 -165t198.5 -62h7q123 0 202 64q81 66 88 178q1 10 1 20q1 32 -7 60q-10 37 -26 64t-43.5 50.5t-52.5 38.5t-62 30t-62 22.5t-62 17.5q-56 15 -97.5 29.5t-93.5 38t-88 54.5t-67.5 72t-47.5 98q-14 50 -13 110v15q3 94 40.5 169.5 t98.5 122.5t135 71.5t154 24.5q142 0 260.5 -74t167.5 -207l-129 -64q-37 92 -119.5 142.5t-175.5 50.5h-6q-101 0 -177 -61q-78 -63 -85 -183v-14q1 -35 9 -65q10 -36 35 -62t49.5 -44.5t64 -33.5t64.5 -23t64 -18q63 -16 111 -32t102.5 -41.5t93 -60t70.5 -80.5t46 -109 q12 -52 13 -114q0 -13 -1 -26q-4 -94 -46.5 -169.5t-109 -121t-145.5 -69t-164 -23.5q-146 0 -274 81t-183 227z" />
<glyph unicode="T" horiz-adv-x="903" d="M10 1274v164h883v-164h-356v-1274h-170v1274h-357z" />
<glyph unicode="U" horiz-adv-x="1320" d="M176 414v1020h170v-1020q0 -70 27 -126t71.5 -91t101 -53.5t115 -18.5t115 18.5t101 53.5t71.5 91t27 126v1020h170v-1020q0 -107 -41.5 -193.5t-110 -140t-155.5 -82.5t-177.5 -29t-177.5 29t-155.5 82.5t-110 140t-41.5 193.5z" />
<glyph unicode="V" horiz-adv-x="1263" d="M14 1442h183l440 -1260l438 1260h178l-514 -1446h-207z" />
<glyph unicode="W" horiz-adv-x="1933" d="M70 1438h176l325 -1250l332 1069h150l327 -1067l328 1248h174l-397 -1444h-207l-301 964q-60 -192 -303 -964h-207z" />
<glyph unicode="X" horiz-adv-x="1296" d="M66 2l493 715l-489 717h202l387 -568q372 545 388 568h202l-489 -717q77 -113 245.5 -357.5t245.5 -357.5h-204l-388 576l-387 -576h-206z" />
<glyph unicode="Y" horiz-adv-x="1185" d="M18 1444h193l381 -694q43 78 120 218.5t140.5 257t118.5 218.5h194l-491 -873v-571h-166v571q-66 116 -234.5 418.5t-255.5 454.5z" />
<glyph unicode="Z" horiz-adv-x="1142" d="M80 121l786 1171h-733v152h881l55 -119l-782 -1171h757v-154h-915z" />
<glyph unicode="[" horiz-adv-x="616" d="M205 -174l2 1786h342v-146h-176l-2 -1499h176v-141h-342z" />
<glyph unicode="\" horiz-adv-x="845" d="M31 1593h172l590 -1726h-175z" />
<glyph unicode="]" horiz-adv-x="618" d="M63 1466v146h343l2 -1786h-342v141h176l-2 1499h-177z" />
<glyph unicode="^" horiz-adv-x="1226" d="M133 616l426 818h111l424 -818h-183l-297 592l-303 -592h-178z" />
<glyph unicode="_" horiz-adv-x="1171" d="M57 0h1047v-160h-1047v160z" />
<glyph unicode="`" horiz-adv-x="1021" d="M356 1794h191l133 -235h-152z" />
<glyph unicode="a" horiz-adv-x="1118" d="M81 340q3 132 108 228q132 122 365 122h11q127 0 264 -72v21q0 85 -30 146.5t-79 93t-112 43.5q-38 7 -76 8q-26 0 -54 -4q-66 -8 -130 -32t-115 -60l-81 94q61 51 136.5 84.5t153.5 45.5q52 8 104 7l54 -2q78 -6 146.5 -38t121.5 -81.5t84 -128.5t31 -176v-639h-125 l-22 92q-105 -102 -289 -106h-7q-235 0 -363 125q-96 94 -96 221v8zM235 304q17 -88 115 -137q81 -40 197 -40q80 0 157.5 28.5t124.5 84.5v249q-105 68 -262 68q-187 -1 -280 -95q-56 -56 -56 -123q0 -17 4 -35z" />
<glyph unicode="b" horiz-adv-x="1183" d="M156 35v1409h159v-438q110 55 228 55h12q126 0 230.5 -47.5t171 -125.5t103 -175t36.5 -199v-7q0 -77 -22 -151q-22 -78 -67.5 -146.5t-109 -120.5t-152 -82t-190.5 -30q-228 0 -399 58zM315 145q86 -26 240 -30q90 0 165 35.5t121.5 93t72.5 127.5q25 67 24 137v6 q-1 59 -16.5 116.5t-48 109.5t-77 91.5t-107 63t-134.5 23.5q-124 0 -240 -46v-727z" />
<glyph unicode="c" horiz-adv-x="1056" d="M82 520q1 103 36 198.5t99.5 173t167 124t227.5 47.5q217 0 363 -143l-88 -109q-113 107 -277 107h-4q-94 0 -175 -48q-83 -49 -135.5 -142.5t-53.5 -211.5q0 -73 23.5 -141t68 -124t117 -90t161.5 -34q77 0 151 30.5t132 84.5l90 -109q-73 -71 -169 -110t-204 -39 q-103 0 -190 30t-149 81t-105.5 119.5t-64.5 146t-21 159.5z" />
<glyph unicode="d" horiz-adv-x="1185" d="M88 514q0 102 36.5 199t103 175t171 125.5t230.5 47.5h12q116 0 229 -55v438h160v-1409q-174 -58 -401 -58q-102 0 -190.5 30t-152 82t-109 120.5t-67.5 146.5q-22 74 -22 151v7zM246 514v-5q0 -69 24 -137q26 -70 73 -128t122 -93.5t164 -35.5q152 4 241 30v727 q-116 46 -241 46q-72 0 -134.5 -23.5t-107 -63t-77 -91.5t-48 -109.5t-16.5 -116.5z" />
<glyph unicode="e" horiz-adv-x="1206" d="M84 522q0 102 34.5 198t98.5 173t166.5 124t226.5 48h4q160 1 282 -81q124 -82 182 -223q41 -99 41 -209q0 -46 -7 -95h-872q10 -140 109 -237t263 -97q88 0 168 37t131 106l129 -78q-152 -206 -428 -206q-127 0 -230.5 46.5t-167.5 123.5q-63 76 -97 172q-33 93 -33 192 v6zM242 592h725q-12 144 -109.5 236.5t-245.5 95.5q-81 -1 -148 -28.5t-111.5 -75t-72.5 -105t-38 -123.5z" />
<glyph unicode="f" horiz-adv-x="585" d="M82 885v147h102v94q0 166 104 247q85 66 211 66q28 0 58 -3v-142q-12 1 -24 1q-85 0 -133 -39q-56 -43 -56 -130v-94h205v-147h-205v-885h-160v885h-102z" />
<glyph unicode="g" horiz-adv-x="1185" d="M88 532q2 101 38.5 195.5t102.5 170.5t170 121.5t230 45.5q232 0 401 -59v-990q0 -106 -33.5 -189t-92.5 -134t-133.5 -78t-160.5 -29h-5q-122 0 -245 51q-124 52 -213 140l89 104q69 -66 172 -107q100 -40 195 -40h5q116 2 189 73t73 209v27q-111 -57 -241 -57 q-128 0 -233.5 47t-172 124.5t-101.5 174.5q-34 92 -34 189v11zM246 528q0 -59 15 -116t47 -108.5t76.5 -91t107.5 -62.5t137 -23q120 0 241 45l2 725q-125 25 -243 25q-90 0 -164.5 -34t-121.5 -90t-72 -126t-25 -144z" />
<glyph unicode="h" horiz-adv-x="1220" d="M156 0v1440h159v-430q111 54 242 57h11q142 0 254 -51q117 -53 187 -163.5t70 -262.5v-590h-159v590q-1 103 -50 179t-130.5 114.5t-182.5 38.5q-121 0 -242 -45v-877h-159z" />
<glyph unicode="i" horiz-adv-x="473" d="M154 1212v230h165v-230h-165zM156 0v1049h161v-1049h-161z" />
<glyph unicode="j" horiz-adv-x="473" d="M-55 -264q12 -1 24 -1q83 0 131 39q56 43 56 130v1145h161v-1145q0 -165 -103 -246q-86 -67 -216 -67q-25 0 -53 3v142zM150 1212v232h165v-232h-165z" />
<glyph unicode="k" horiz-adv-x="1040" d="M156 0v1434h155v-883l488 489h194l-456 -454l473 -586h-187l-389 483l-123 -114v-369h-155z" />
<glyph unicode="l" horiz-adv-x="536" d="M143 305v1139h162v-1139q0 -95 35 -135q30 -35 104 -34q13 0 27 1v-141q-29 -3 -55 -3q-120 0 -189 64q-84 78 -84 248z" />
<glyph unicode="m" horiz-adv-x="1869" d="M156 0v989q215 76 415 76q280 -4 371 -180q98 178 354 178q93 0 168.5 -25t136.5 -77.5t94.5 -144.5t33.5 -216v-600h-160v600q0 162 -75 242t-198 80q-271 0 -274 -301l-2 -621h-154l-4 621q0 86 -22 147t-63 93.5t-91.5 47t-116.5 15.5q-157 0 -252 -37v-887h-161z" />
<glyph unicode="n" horiz-adv-x="1241" d="M156 0v985q227 80 413 80q148 0 266 -52.5t190.5 -161t72.5 -257.5v-594h-160v594q0 80 -28.5 142.5t-77 100t-110.5 59.5q-63 22 -133 26q-19 1 -38 1q-51 -1 -101 -7q-70 -10 -133 -31v-885h-161z" />
<glyph unicode="o" d="M82 518q0 230 148 385.5t378 155.5q153 0 275 -72t188 -195t66 -274t-66 -274.5t-188 -196t-275 -72.5q-230 0 -378 156.5t-148 386.5zM242 518q0 -98 31 -176t82.5 -126t116.5 -73.5t136 -25.5q72 0 137 25.5t117.5 73.5t83.5 126t31 176t-31 175.5t-83.5 125t-117.5 72 t-137 24.5q-71 0 -135.5 -24.5t-117 -72t-83 -125t-30.5 -175.5z" />
<glyph unicode="p" horiz-adv-x="1187" d="M156 -399v1405q166 55 401 59q126 0 231 -44.5t172 -118.5t103.5 -167.5t36.5 -195.5q-1 -102 -37.5 -200t-103.5 -177.5t-171.5 -128.5t-230.5 -49q-131 0 -242 57v-440h-159zM315 172q113 -45 242 -45q89 0 163 37t120.5 97t72.5 131q27 75 27 149q0 97 -42 183 q-43 87 -132.5 144.5t-208.5 57.5q-139 0 -242 -33v-721z" />
<glyph unicode="q" horiz-adv-x="1187" d="M88 539q0 102 36.5 195.5t103.5 167.5t172 118.5t231 44.5q235 -4 401 -59v-1407h-160v442q-111 -57 -241 -57q-126 0 -230.5 49t-171.5 128.5t-103.5 177.5t-37.5 200zM275 392q26 -71 72.5 -131t120.5 -97t163 -37q128 0 241 45v721q-103 33 -241 33 q-119 0 -208.5 -57.5t-132.5 -144.5q-42 -86 -42 -183q0 -74 27 -149z" />
<glyph unicode="r" horiz-adv-x="806" d="M156 0v1044h137l16 -133q49 84 139 122q77 32 157 33q13 0 27 -2q92 -6 171 -46l-60 -139q-63 29 -126 35q-14 1 -28 1q-47 -1 -89 -15q-54 -18 -95.5 -54.5t-65.5 -94t-24 -126.5v-625h-159z" />
<glyph unicode="s" horiz-adv-x="878" d="M76 147l98 101q103 -127 252 -127h6q50 -1 96 15q48 16 82.5 56.5t34.5 96.5q-1 36 -22 65.5t-56 48t-68.5 30t-70.5 18.5q-55 9 -99.5 23t-87.5 37.5t-72.5 55t-47.5 78t-19 103.5q0 142 108.5 226.5t256.5 84.5q85 0 166.5 -29t140.5 -90l-92 -104q-51 43 -101 59 t-114 18h-7q-80 -1 -140 -43q-62 -44 -62 -120q0 -32 14 -56.5t34 -39.5t50 -27.5t53.5 -18.5t53.5 -12q56 -11 101.5 -26t91 -40t76.5 -57.5t50 -80t19 -105.5q0 -78 -35 -140t-91.5 -97.5t-120 -54t-128.5 -18.5q-108 0 -200 43t-150 127z" />
<glyph unicode="t" horiz-adv-x="620" d="M63 899v139h107v394h160v-394h211v-139h-211v-596q0 -88 56 -132q47 -37 125 -37q14 0 30 1v-141q-30 -3 -58 -3q-126 -1 -210 65q-103 80 -103 247v596h-107z" />
<glyph unicode="u" horiz-adv-x="1239" d="M141 451v589h160v-589q0 -159 104.5 -246.5t264.5 -87.5q157 0 252 37v888h161v-989q-227 -80 -411 -80q-149 0 -267.5 54t-191 164t-72.5 260z" />
<glyph unicode="v" horiz-adv-x="970" d="M23 1042h172l245 -692q11 -27 25 -92.5t20 -103.5h13q18 129 43 196l243 692h172l-370 -1046h-193z" />
<glyph unicode="w" horiz-adv-x="1449" d="M33 1044h164l194 -688q18 -55 33 -200h10q2 46 10 110.5t15 87.5l176 690h178l174 -690q10 -34 19.5 -97.5t11.5 -100.5h10q4 113 29 200l194 688h164l-309 -1044h-188l-175 694q-2 8 -9 72.5t-7 67.5h-8q0 -1 -7 -69.5t-7 -70.5l-173 -694h-188z" />
<glyph unicode="x" horiz-adv-x="1032" d="M41 0l367 520l-363 524h199l268 -407l268 407h199l-365 -524l369 -520h-199l-272 403l-272 -403h-199z" />
<glyph unicode="y" horiz-adv-x="1011" d="M4 1038h172l336 -860l319 860h173l-482 -1243q-70 -187 -294 -187q-27 0 -56 3v133q23 -3 43 -3q56 0 89 21q44 27 67 84l57 150z" />
<glyph unicode="z" horiz-adv-x="937" d="M68 102l583 797l-545 -2v143h662l86 -104l-582 -799h582v-137h-704z" />
<glyph unicode="{" horiz-adv-x="618" d="M102 639v152q138 0 138 268v303q0 108 58.5 172.5t162.5 64.5h96v-145q-10 0 -30 0.5t-28 0t-23 -1t-21 -3.5t-16 -7.5t-14 -12t-9 -18.5t-6.5 -26t-1.5 -34v-332q0 -226 -111 -305q111 -79 111 -305v-330q0 -22 3 -38.5t6 -28t13.5 -19t15 -11.5t23 -6t24 -2.5t31 0 t33.5 0.5v-145h-96q-104 0 -162.5 65t-58.5 173v303q0 268 -138 268z" />
<glyph unicode="|" horiz-adv-x="563" d="M203 -326v1948h157v-1948h-157z" />
<glyph unicode="}" horiz-adv-x="618" d="M61 -25q9 0 30 -0.5t28 0t23 1.5t21.5 3.5t16 7.5t14.5 13t9 19t6.5 26t1.5 35v330q0 226 111 305q-111 79 -111 305v332q0 22 -3 38t-6 27t-13.5 18.5t-16 11.5t-22.5 5.5t-24.5 2t-31 0t-33.5 -0.5v145h97q104 0 162.5 -64.5t58.5 -172.5v-303q0 -268 137 -268v-152 q-137 0 -137 -268v-303q0 -108 -58.5 -173t-162.5 -65h-97v145z" />
<glyph unicode="~" horiz-adv-x="1200" d="M117 567q198 367 536 138q55 -37 99.5 -47.5t82 6.5t68 49t66.5 88l108 -88q-52 -114 -134 -168.5t-179 -46.5t-199 73q-84 54 -138 61t-99 -27.5t-105 -125.5z" />
<glyph unicode="&#xa1;" horiz-adv-x="575" d="M197 -397l8 1085h168l10 -1085h-186zM197 825v211h184v-211h-184z" />
<glyph unicode="&#xa2;" horiz-adv-x="1142" d="M111 711q1 97 32 187.5t88.5 165.5t149 124.5t203.5 60.5v185h125v-185q171 -18 295 -139l-89 -109q-113 107 -276 107q-71 1 -137.5 -28t-117.5 -80t-82 -127.5t-32 -165.5q0 -73 23.5 -141.5t68 -124.5t117.5 -90t162 -34q77 0 151 30.5t132 84.5l90 -108 q-128 -125 -305 -146v-176h-125v174q-114 10 -206 58.5t-149 123t-87.5 165t-30.5 188.5z" />
<glyph unicode="&#xa3;" horiz-adv-x="1191" d="M115 0v150h116v497h-112v123h112v262q0 98 33 179t88 132.5t126.5 82t148 35t153.5 -17t141.5 -65.5t113 -118t67.5 -168l-156 -31q-15 78 -62 134.5t-107.5 81.5t-128 23t-123 -31t-92 -91t-36.5 -146v-262h451v-123h-451v-497h715v-150h-997z" />
<glyph unicode="&#xa5;" horiz-adv-x="1234" d="M53 1434h195l381 -695q62 114 189 347.5t188 347.5h194l-348 -623h174v-123h-244l-71 -129v-24h315v-123h-315v-412h-168v412h-314v123h314v24q-35 65 -72 129h-242v123h172q-17 31 -149 269.5t-199 353.5z" />
<glyph unicode="&#xa6;" horiz-adv-x="559" d="M203 -326v840h157v-840h-157zM203 788v834h157v-834h-157z" />
<glyph unicode="&#xa7;" horiz-adv-x="946" d="M82 135l100 98q103 -124 252 -124q84 -2 151 41t66 124q0 37 -20.5 67t-55.5 48.5t-68.5 30t-70.5 18.5q-55 9 -99.5 23t-88 37.5t-72.5 55t-47 78t-18 103.5q0 65 37 117.5t98 79.5q-103 79 -103 213q0 97 53 169.5t135 108t177 35.5q84 0 165.5 -30t139.5 -91l-90 -110 q-96 81 -219 84q-83 2 -144.5 -43t-60.5 -123q0 -37 19 -64t54.5 -43.5t63 -24.5t68.5 -16q71 -14 126.5 -36t106 -57.5t78 -90.5t27.5 -127q0 -144 -137 -192q104 -81 104 -220q0 -63 -23.5 -116t-61.5 -88t-87.5 -59t-100.5 -35t-102 -11q-108 0 -201 43t-151 127z M266 735q0 -30 14 -54t33.5 -38.5t50.5 -27t53.5 -18t53.5 -11.5q63 -11 129 -37q86 47 86 137q-1 37 -22 67t-55.5 48.5t-69 29.5t-70.5 17q-52 8 -113 29q-93 -51 -90 -142z" />
<glyph unicode="&#xa8;" horiz-adv-x="1021" d="M246 1602v200h184v-200h-184zM600 1602v200h184v-200h-184z" />
<glyph unicode="&#xa9;" horiz-adv-x="1681" d="M111 717q0 153 57.5 291.5t154.5 238.5t231.5 158.5t283.5 58.5q201 0 369.5 -99.5t266 -271t97.5 -376.5q0 -153 -57.5 -292t-155.5 -238.5t-234 -158.5t-286 -59q-149 0 -283.5 59t-231.5 158.5t-154.5 238.5t-57.5 292zM260 717q0 -126 45 -239t121.5 -194t184 -128 t227.5 -47q162 0 296 80t210.5 219.5t76.5 308.5t-76.5 308.5t-210.5 219.5t-296 80q-120 0 -227.5 -47t-184 -128t-121.5 -194t-45 -239zM456.5 716q-0.5 -114 53.5 -210q53 -95 144 -145t202 -50q163 0 281 115l-93 104q-78 -75 -188 -75q-141 0 -207 112 q-44 72 -39.5 163t56.5 157q54 70 131 88q65 17 133.5 -3.5t116.5 -68.5l90 107q-111 114 -281 114q-112 0 -202.5 -50.5t-143.5 -147.5q-53 -96 -53.5 -210z" />
<glyph unicode="&#xaa;" horiz-adv-x="974" d="M111 1065q0 164 116.5 282t280.5 121q168 6 309 -61l8 -4v-725h-129l-12 88q-44 -61 -114.5 -82.5t-147.5 -5.5q-137 27 -224 131t-87 256zM147 455v116h680v-116h-680zM254 1065q0 -93 57 -167.5t144 -94.5q67 -14 126.5 7.5t98.5 76.5l2 444q-76 26 -170 19 q-109 -9 -183.5 -91t-74.5 -194z" />
<glyph unicode="&#xab;" horiz-adv-x="1122" d="M90 578l336 421h184l-336 -421l336 -420h-184zM502 578l336 421h184l-336 -421l336 -420h-184z" />
<glyph unicode="&#xac;" horiz-adv-x="1257" d="M123 707v149h977v-547h-148v398h-829z" />
<glyph unicode="&#xad;" horiz-adv-x="882" d="M143 506v151h598v-151h-598z" />
<glyph unicode="&#xae;" horiz-adv-x="1681" d="M113 713q0 153 57.5 291.5t154.5 238.5t231.5 158.5t283.5 58.5q201 0 369.5 -99.5t266 -271t97.5 -376.5q0 -153 -57.5 -292t-155.5 -238.5t-234 -158.5t-286 -59q-149 0 -283.5 59t-231.5 158.5t-154.5 238.5t-57.5 292zM262 713q0 -169 76 -308.5t209 -220t293 -80.5 q162 0 296 80.5t210.5 220t76.5 308.5t-76.5 308.5t-210.5 219.5t-296 80q-120 0 -227.5 -47t-184 -128t-121.5 -194t-45 -239zM588 317h145v308h51l234 -308h170l-248 314q97 19 150 81t53 162q-1 127 -80.5 191.5t-208.5 64.5h-266v-813zM733 748v258h121q67 0 108.5 -42 t43.5 -90t-41.5 -87t-110.5 -39h-121z" />
<glyph unicode="&#xaf;" horiz-adv-x="1021" d="M250 1550v138h522v-138h-522z" />
<glyph unicode="&#xb0;" horiz-adv-x="798" d="M113 1174q0 114 83 196t201 82t202.5 -82t84.5 -196q0 -115 -84 -197t-203 -82q-118 0 -201 81.5t-83 197.5zM246 1174q0 -63 43.5 -107.5t107.5 -44.5t108 44.5t44 107.5t-44 108t-108 45t-107.5 -44.5t-43.5 -108.5z" />
<glyph unicode="&#xb1;" horiz-adv-x="1394" d="M190 696v162h431v418h157v-418h412v-162h-412v-422h-157v422h-431zM205 0v141h985v-141h-985z" />
<glyph unicode="&#xb2;" horiz-adv-x="808" d="M63 743l459 433q88 88 66 161q-14 51 -64.5 75t-109.5 26q-68 3 -123.5 -24t-83.5 -85l-129 53q30 71 92 121q47 39 113 58q68 19 133 16q108 -3 195.5 -55.5t115.5 -149.5q23 -77 -7 -155t-95 -140l-340 -301h452v-131h-628z" />
<glyph unicode="&#xb3;" horiz-adv-x="849" d="M86 823l121 58q31 -56 91 -87.5t126 -31.5q73 0 128.5 42.5t55.5 113.5q0 67 -50 111t-118 44h-92v123h92q61 0 101.5 29t40.5 88q0 62 -46.5 95.5t-111.5 33.5q-56 0 -108.5 -27t-77.5 -74l-117 62q40 80 122 125t175 45q81 0 151 -28t117 -89t47 -143q0 -54 -30.5 -101 t-79.5 -69q137 -71 137 -228q-1 -88 -51.5 -154.5t-126.5 -98t-162 -31.5q-106 0 -198 50t-136 142z" />
<glyph unicode="&#xb4;" horiz-adv-x="1021" d="M350 1559l133 235h191l-172 -235h-152z" />
<glyph unicode="&#xb6;" horiz-adv-x="1208" d="M86 997q0 85 30.5 163.5t88.5 142t152 101.5t210 38h451v-1606h-162v1464h-180v-1464h-164v729q-102 4 -185 42.5t-134.5 99.5t-79 135.5t-27.5 154.5z" />
<glyph unicode="&#xb7;" horiz-adv-x="532" d="M180 506v194h189v-194h-189z" />
<glyph unicode="&#xb8;" horiz-adv-x="1021" d="M315 -373l31 90q69 -39 131 -39q55 -1 79.5 33.5t3 70.5t-78.5 38q-32 0 -55 -13l-49 41l104 183h119l-65 -117q56 -2 107 -50t48 -108q-4 -89 -64 -134.5t-137 -45.5q-74 0 -174 51z" />
<glyph unicode="&#xb9;" horiz-adv-x="602" d="M100 1425v134h19h246h18v-922h-152v788h-131z" />
<glyph unicode="&#xba;" horiz-adv-x="956" d="M143 1130q0 137 96.5 229.5t235.5 92.5q141 0 238.5 -92.5t97.5 -229.5q0 -143 -97 -235t-237 -92q-141 0 -237.5 92t-96.5 235zM160 526v133h639v-133h-639zM274 1130q0 -93 58.5 -152.5t144.5 -59.5q85 0 143 60t58 152q0 90 -58.5 148.5t-142.5 58.5 q-86 0 -144.5 -58.5t-58.5 -148.5z" />
<glyph unicode="&#xbb;" horiz-adv-x="1122" d="M100 158l336 420l-336 421h183l335 -421l-335 -420h-183zM514 158l336 420l-336 421h182l336 -421l-336 -420h-182z" />
<glyph unicode="&#xbc;" horiz-adv-x="1898" d="M188 1303h131v-711h152v844h-18h-246h-19v-133zM473 -66l768 1610h154l-768 -1610h-154zM1083 272l91 -108h387v-164h149v164h80v131h-80v612h-147zM1264 297l299 408l-2 -410z" />
<glyph unicode="&#xbd;" horiz-adv-x="1937" d="M154 1303h131v-711h151v844h-18h-246h-18v-133zM397 -61l770 1597h154l-770 -1597h-154zM1155 98l45 -98h629v131h-453l340 301q65 62 95.5 140t7.5 155q-28 97 -116 149.5t-196 55.5q-62 3 -133 -17q-66 -19 -112 -57q-63 -51 -93 -121l129 -53q28 58 83.5 85t123.5 24 q59 -2 109.5 -26t64.5 -75q22 -75 -65 -162z" />
<glyph unicode="&#xbe;" horiz-adv-x="2004" d="M80 715q44 -92 136 -142.5t198 -50.5q86 0 162 32t126.5 98.5t51.5 154.5q0 155 -138 227q49 22 80 69t31 101q0 82 -47 143t-117 89t-151 28q-93 0 -175 -45t-122 -125l116 -61q25 47 78 73.5t109 26.5q65 0 111 -33.5t46 -95.5q0 -59 -40 -88t-101 -29h-92v-122h92 q68 0 118 -44.5t50 -111.5q0 -71 -55.5 -113.5t-128.5 -42.5q-66 0 -126 31.5t-91 87.5zM596 -74l780 1610h154l-780 -1610h-154zM1178 272l90 -108h387v-164h149v164h80v131h-80v612h-147zM1358 297l299 408l-2 -410z" />
<glyph unicode="&#xbf;" horiz-adv-x="1011" d="M92 -4q1 182 111 299.5t293 150.5l14 295h145l13 -424q-104 -1 -198 -41.5t-153 -115.5t-57 -166q3 -123 92.5 -198t208.5 -75q82 0 160.5 38t130.5 102l121 -92l-19 -23q-67 -87 -173 -132.5t-224 -45.5q-90 0 -173 28t-148.5 80.5t-105 135.5t-38.5 184zM487 846v190 h179v-190h-179z" />
<glyph unicode="&#xc0;" horiz-adv-x="1273" d="M16 0l514 1444h207l520 -1444h-178l-166 459h-555l-161 -459h-181zM387 1765h191l133 -235h-152zM410 614h448l-223 652z" />
<glyph unicode="&#xc1;" horiz-adv-x="1273" d="M16 0l514 1444h207l520 -1444h-178l-166 459h-555l-161 -459h-181zM410 614h448l-223 652zM559 1538l133 236h191l-172 -236h-152z" />
<glyph unicode="&#xc2;" horiz-adv-x="1273" d="M16 0l514 1444h207l520 -1444h-178l-166 459h-555l-161 -459h-181zM348 1518l180 239h207l180 -239h-151l-131 165h-4l-129 -165h-152zM410 614h448l-223 652z" />
<glyph unicode="&#xc3;" horiz-adv-x="1273" d="M16 0l514 1444h207l520 -1444h-178l-166 459h-555l-161 -459h-181zM309 1597q61 115 163 141t206 -46q110 -74 190 57l93 -68q-47 -106 -145.5 -133t-194.5 37q-127 81 -213 -51zM410 614h448l-223 652z" />
<glyph unicode="&#xc4;" horiz-adv-x="1273" d="M16 0l514 1444h207l520 -1444h-178l-166 459h-555l-161 -459h-181zM381 1536v182h172v-182h-172zM410 614h448l-223 652zM713 1536v182h174v-182h-174z" />
<glyph unicode="&#xc5;" horiz-adv-x="1273" d="M16 0l514 1444h207l520 -1444h-178l-166 459h-555l-161 -459h-181zM410 614h448l-223 652zM457 1669q0 70 51 112t123 42q71 0 122.5 -42.5t51.5 -111.5q0 -68 -51.5 -109.5t-122.5 -41.5q-72 0 -123 41.5t-51 109.5zM563 1669q0 -29 18.5 -48t49.5 -19q29 0 48 19t19 48 q0 32 -19 52t-48 20q-31 0 -49.5 -20t-18.5 -52z" />
<glyph unicode="&#xc6;" horiz-adv-x="1751" d="M12 2l733 1444h906v-156h-596v-491h590v-158h-590l-2 -479h598v-160h-766v483h-447l-245 -483h-181zM518 645h367v680h-27z" />
<glyph unicode="&#xc7;" horiz-adv-x="1472" d="M98 713q0 113 29.5 221t91 203t147 167t205 114t258.5 42q151 0 285 -57t236 -160l-109 -113q-81 85 -189 131.5t-223 43.5q-134 -2 -242.5 -53t-177 -135t-105 -188t-36.5 -216q0 -89 23 -173t70 -158.5t112.5 -130t157.5 -88t198 -32.5q126 0 244.5 55t200.5 152 l119 -98q-95 -114 -226.5 -182.5t-283.5 -80.5l-47 -86q56 -2 107 -49.5t48 -107.5q-4 -89 -63.5 -134.5t-136.5 -45.5q-75 0 -175 51l31 90q69 -39 131 -39q55 -1 79.5 33.5t3 70t-78.5 37.5q-33 0 -55 -12l-49 41l86 154q-158 11 -286.5 77t-210 168t-125.5 227.5 t-44 260.5z" />
<glyph unicode="&#xc8;" horiz-adv-x="1067" d="M197 2v1440h768v-158h-598v-485h589v-158h-589l-2 -479h600v-160h-768zM369 1769h190l133 -235h-151z" />
<glyph unicode="&#xc9;" horiz-adv-x="1067" d="M197 2v1440h768v-158h-598v-485h589v-158h-589l-2 -479h600v-160h-768zM500 1538l133 236h190l-172 -236h-151z" />
<glyph unicode="&#xca;" horiz-adv-x="1067" d="M197 2v1440h768v-158h-598v-485h589v-158h-589l-2 -479h600v-160h-768zM305 1536l180 240h207l180 -240h-151l-131 166h-4l-129 -166h-152z" />
<glyph unicode="&#xcb;" horiz-adv-x="1067" d="M197 2v1440h768v-158h-598v-485h589v-158h-589l-2 -479h600v-160h-768zM352 1542v187h174v-187h-174zM686 1542v187h174v-187h-174z" />
<glyph unicode="&#xcc;" horiz-adv-x="561" d="M29 1772h190l133 -236h-151zM197 0v1440h168v-1440h-168z" />
<glyph unicode="&#xcd;" horiz-adv-x="561" d="M197 0v1440h168v-1440h-168zM199 1538l133 236h190l-172 -236h-151z" />
<glyph unicode="&#xce;" horiz-adv-x="561" d="M-8 1518l180 239h207l180 -239h-151l-132 165h-4l-129 -165h-151zM197 0v1440h168v-1440h-168z" />
<glyph unicode="&#xcf;" horiz-adv-x="561" d="M20 1536v176h177v-176h-177zM197 0v1440h168v-1440h-168zM360 1536v176h177v-176h-177z" />
<glyph unicode="&#xd0;" horiz-adv-x="1476" d="M84 637v156h125v651h442q137 1 254 -38t200.5 -107t143.5 -159t89.5 -193.5t31.5 -211.5q2 -111 -25 -217t-85.5 -200t-142.5 -165t-203.5 -112t-260.5 -41h-444v637h-125zM377 156h274q136 -2 245.5 46.5t176 131t100.5 185.5t31 214q-2 107 -38.5 205.5t-103 177 t-172 125.5t-235.5 47h-278v-495h270v-156h-270v-481z" />
<glyph unicode="&#xd1;" horiz-adv-x="1474" d="M197 0v1442h180l737 -1204v1204h170v-1442h-215l-704 1155v-1155h-168zM414 1591q61 115 162.5 141t205.5 -46q111 -74 191 57l92 -68q-47 -106 -145.5 -133t-194.5 37q-127 81 -213 -51z" />
<glyph unicode="&#xd2;" horiz-adv-x="1658" d="M98 715q0 149 58 286.5t156 238.5t233.5 161.5t283.5 60.5t284 -60.5t234 -161.5t156 -238.5t58 -286.5q0 -120 -37 -233t-105 -204.5t-158 -161t-201.5 -107.5t-230.5 -38q-148 0 -283.5 59.5t-233.5 159.5t-156 237.5t-58 287.5zM268 715q0 -140 48 -254.5 t127.5 -185.5t179 -109.5t206.5 -38.5t206.5 38.5t179.5 109.5t128 185.5t48 254.5q0 139 -48.5 254t-128.5 188t-180 112t-207 38t-206 -40.5t-178.5 -112.5t-127 -187t-47.5 -252zM596 1780h190l134 -236h-152z" />
<glyph unicode="&#xd3;" horiz-adv-x="1658" d="M98 715q0 149 58 286.5t156 238.5t233.5 161.5t283.5 60.5t284 -60.5t234 -161.5t156 -238.5t58 -286.5q0 -120 -37 -233t-105 -204.5t-158 -161t-201.5 -107.5t-230.5 -38q-148 0 -283.5 59.5t-233.5 159.5t-156 237.5t-58 287.5zM268 715q0 -140 48 -254.5 t127.5 -185.5t179 -109.5t206.5 -38.5t206.5 38.5t179.5 109.5t128 185.5t48 254.5q0 139 -48.5 254t-128.5 188t-180 112t-207 38t-206 -40.5t-178.5 -112.5t-127 -187t-47.5 -252zM731 1544l133 236h191l-172 -236h-152z" />
<glyph unicode="&#xd4;" horiz-adv-x="1658" d="M98 715q0 149 58 286.5t156 238.5t233.5 161.5t283.5 60.5t284 -60.5t234 -161.5t156 -238.5t58 -286.5q0 -120 -37 -233t-105 -204.5t-158 -161t-201.5 -107.5t-230.5 -38q-148 0 -283.5 59.5t-233.5 159.5t-156 237.5t-58 287.5zM268 715q0 -140 48 -254.5 t127.5 -185.5t179 -109.5t206.5 -38.5t206.5 38.5t179.5 109.5t128 185.5t48 254.5q0 139 -48.5 254t-128.5 188t-180 112t-207 38t-206 -40.5t-178.5 -112.5t-127 -187t-47.5 -252zM535 1518l180 239h207l180 -239h-152l-131 165h-4l-129 -165h-151z" />
<glyph unicode="&#xd5;" horiz-adv-x="1658" d="M98 715q0 149 58 286.5t156 238.5t233.5 161.5t283.5 60.5t284 -60.5t234 -161.5t156 -238.5t58 -286.5q0 -120 -37 -233t-105 -204.5t-158 -161t-201.5 -107.5t-230.5 -38q-148 0 -283.5 59.5t-233.5 159.5t-156 237.5t-58 287.5zM268 715q0 -140 48 -254.5 t127.5 -185.5t179 -109.5t206.5 -38.5t206.5 38.5t179.5 109.5t128 185.5t48 254.5q0 139 -48.5 254t-128.5 188t-180 112t-207 38t-206 -40.5t-178.5 -112.5t-127 -187t-47.5 -252zM500 1593q61 115 162.5 141t205.5 -46q111 -74 191 57l92 -68q-47 -106 -145.5 -133 t-194.5 37q-127 81 -213 -51z" />
<glyph unicode="&#xd6;" horiz-adv-x="1658" d="M98 715q0 149 58 286.5t156 238.5t233.5 161.5t283.5 60.5t284 -60.5t234 -161.5t156 -238.5t58 -286.5q0 -120 -37 -233t-105 -204.5t-158 -161t-201.5 -107.5t-230.5 -38q-148 0 -283.5 59.5t-233.5 159.5t-156 237.5t-58 287.5zM268 715q0 -140 48 -254.5 t127.5 -185.5t179 -109.5t206.5 -38.5t206.5 38.5t179.5 109.5t128 185.5t48 254.5q0 139 -48.5 254t-128.5 188t-180 112t-207 38t-206 -40.5t-178.5 -112.5t-127 -187t-47.5 -252zM555 1554v172h186v-172h-186zM913 1554v172h187v-172h-187z" />
<glyph unicode="&#xd7;" horiz-adv-x="1083" d="M123 889l113 115l305 -306l295 295l112 -110l-297 -295l293 -293l-115 -113l-290 291l-299 -299l-113 113l299 297z" />
<glyph unicode="&#xd8;" horiz-adv-x="1658" d="M98 715q0 149 58 286.5t156 238.5t233.5 161.5t283.5 60.5q172 0 326 -80l94 156h158l-137 -229q135 -106 213 -262.5t78 -331.5q0 -120 -37 -233t-105 -204.5t-158 -161t-201.5 -107.5t-230.5 -38q-166 0 -317 74l-88 -147h-160l131 219q-138 105 -217.5 261.5 t-79.5 336.5zM268 715q0 -154 55 -272t152 -195l600 1001q-116 58 -248 58q-107 -1 -206 -40.5t-178.5 -112.5t-127 -187t-47.5 -252zM592 176q113 -49 237 -49q107 0 206.5 38.5t179.5 109.5t128 185.5t48 254.5q0 148 -54 266t-147 195z" />
<glyph unicode="&#xd9;" horiz-adv-x="1320" d="M176 414v1020h170v-1020q0 -70 27 -126t71.5 -91t101 -53.5t115 -18.5t115 18.5t101 53.5t71.5 91t27 126v1020h170v-1020q0 -107 -41.5 -193.5t-110 -140t-155.5 -82.5t-177.5 -29t-177.5 29t-155.5 82.5t-110 140t-41.5 193.5zM440 1753h191l133 -235h-152z" />
<glyph unicode="&#xda;" horiz-adv-x="1320" d="M176 414v1020h170v-1020q0 -70 27 -126t71.5 -91t101 -53.5t115 -18.5t115 18.5t101 53.5t71.5 91t27 126v1020h170v-1020q0 -107 -41.5 -193.5t-110 -140t-155.5 -82.5t-177.5 -29t-177.5 29t-155.5 82.5t-110 140t-41.5 193.5zM555 1518l133 235h191l-172 -235h-152z " />
<glyph unicode="&#xdb;" horiz-adv-x="1320" d="M176 414v1020h170v-1020q0 -70 27 -126t71.5 -91t101 -53.5t115 -18.5t115 18.5t101 53.5t71.5 91t27 126v1020h170v-1020q0 -107 -41.5 -193.5t-110 -140t-155.5 -82.5t-177.5 -29t-177.5 29t-155.5 82.5t-110 140t-41.5 193.5zM375 1522l180 239h207l180 -239h-151 l-132 166h-4l-129 -166h-151z" />
<glyph unicode="&#xdc;" horiz-adv-x="1320" d="M176 414v1020h170v-1020q0 -70 27 -126t71.5 -91t101 -53.5t115 -18.5t115 18.5t101 53.5t71.5 91t27 126v1020h170v-1020q0 -107 -41.5 -193.5t-110 -140t-155.5 -82.5t-177.5 -29t-177.5 29t-155.5 82.5t-110 140t-41.5 193.5zM395 1532v164h183v-164h-183zM748 1532 v164h182v-164h-182z" />
<glyph unicode="&#xdd;" horiz-adv-x="1185" d="M18 1444h193l381 -694q43 78 120 218.5t140.5 257t118.5 218.5h194l-491 -873v-571h-166v571q-66 116 -234.5 418.5t-255.5 454.5zM508 1526l133 235h190l-172 -235h-151z" />
<glyph unicode="&#xde;" horiz-adv-x="1173" d="M197 0v1434h168v-234h260q116 0 210.5 -39.5t152.5 -105t89 -146.5t31 -168q0 -88 -31 -167.5t-89.5 -142.5t-151.5 -100.5t-209 -37.5h-262v-293h-168zM365 449h260q77 0 138.5 25.5t99 67.5t57.5 93t20 106q0 56 -20 110.5t-57.5 100.5t-99.5 74.5t-138 28.5h-260v-606 z" />
<glyph unicode="&#xdf;" horiz-adv-x="1169" d="M152 0v1075q0 114 59.5 201.5t153.5 131.5t204 44q170 0 290 -100.5t120 -268.5q0 -87 -43.5 -168t-126.5 -133q120 -45 191 -148t69 -222q2 -90 -26 -165t-77 -125t-115 -83.5t-140 -45.5t-152.5 -5t-152.5 32v156q78 -45 176 -45q77 0 139 24t100.5 63.5t59 90t20 103 t-21 103t-59 90t-100.5 63.5t-138 24h-121v158h121q113 0 178 72.5t59 164.5q-7 96 -80.5 152.5t-171.5 56.5q-97 0 -171 -62t-74 -159v-917v-158h-170z" />
<glyph unicode="&#xe0;" horiz-adv-x="1114" d="M81 340q3 132 108 228q135 125 376 122q117 0 254 -72v21q0 281 -270 291q-86 3 -168 -22t-135 -77l-82 95q72 71 173.5 106t211.5 35q186 -2 305 -112.5t119 -315.5v-639h-125l-23 92q-106 -103 -278 -106q-240 -2 -370 125q-99 97 -96 229zM238 304q17 -88 115 -137 q79 -40 194 -40q79 0 152 28.5t120 84.5v249q-105 68 -252 68q-185 -1 -277 -95q-70 -71 -52 -158zM322 1425h190l133 -235h-151z" />
<glyph unicode="&#xe1;" horiz-adv-x="1114" d="M81 340q3 132 108 228q135 125 376 122q117 0 254 -72v21q0 281 -270 291q-87 3 -171.5 -22t-137.5 -77l-82 95q72 70 176 105.5t215 35.5q186 -2 305 -112.5t119 -315.5v-639h-125l-23 92q-106 -103 -278 -106q-240 -2 -370 125q-99 97 -96 229zM238 304 q17 -88 115 -137q79 -40 194 -40q79 0 152 28.5t120 84.5v249q-105 68 -252 68q-185 -1 -277 -95q-70 -71 -52 -158zM422 1186l133 235h190l-172 -235h-151z" />
<glyph unicode="&#xe2;" horiz-adv-x="1114" d="M81 340q3 132 108 228q135 125 376 122q117 0 254 -72v21q0 281 -270 291q-88 3 -171 -21t-136 -75l-82 94q71 70 174.5 104.5t214.5 34.5q186 -2 305 -112.5t119 -315.5v-639h-125l-23 92q-106 -103 -278 -106q-240 -2 -370 125q-99 97 -96 229zM238 304 q17 -88 115 -137q79 -40 194 -40q79 0 152 28.5t120 84.5v249q-105 68 -252 68q-185 -1 -277 -95q-70 -71 -52 -158zM254 1176l180 239h207l180 -239h-151l-131 165h-4l-129 -165h-152z" />
<glyph unicode="&#xe3;" horiz-adv-x="1114" d="M81 340q3 132 108 228q135 125 376 122q117 0 254 -72v21q0 281 -270 291q-89 3 -174 -20t-137 -74l-82 94q71 70 176 103.5t217 33.5q186 -2 305 -112.5t119 -315.5v-639h-125l-23 92q-106 -103 -278 -106q-240 -2 -370 125q-99 97 -96 229zM238 304q17 -88 115 -137 q79 -40 194 -40q79 0 152 28.5t120 84.5v249q-105 68 -252 68q-185 -1 -277 -95q-70 -71 -52 -158zM254 1270q57 107 151.5 130.5t192.5 -42.5q103 -69 178 53l86 -63q-44 -99 -136 -124.5t-181 33.5q-120 74 -201 -47z" />
<glyph unicode="&#xe4;" horiz-adv-x="1114" d="M81 340q3 132 108 228q135 125 376 122q117 0 254 -72v21q0 149 -71.5 220.5t-198.5 76.5q-85 3 -171 -25t-140 -80l-82 95q72 70 177 105.5t216 35.5q186 -2 305 -112.5t119 -315.5v-639h-125l-23 92q-106 -103 -278 -106q-240 -2 -370 125q-99 97 -96 229zM238 304 q17 -88 115 -137q79 -40 194 -40q79 0 152 28.5t120 84.5v249q-105 68 -252 68q-185 -1 -277 -95q-70 -71 -52 -158zM297 1249v154h174v-154h-174zM635 1249v154h176v-154h-176z" />
<glyph unicode="&#xe5;" horiz-adv-x="1114" d="M81 340q3 132 108 228q135 125 376 122q117 0 254 -72v21q0 285 -270 295q-88 3 -175.5 -22t-140.5 -76l-77 90q72 70 177 105.5t216 35.5q186 -2 305 -112.5t119 -315.5v-639h-125l-23 92q-106 -103 -278 -106q-240 -2 -370 125q-99 97 -96 229zM238 304 q17 -88 115 -137q79 -40 194 -40q79 0 152 28.5t120 84.5v249q-105 68 -252 68q-185 -1 -277 -95q-70 -71 -52 -158zM354 1290q0 70 50 112t122 42q71 0 121.5 -42.5t50.5 -111.5q0 -68 -50.5 -109.5t-121.5 -41.5q-72 0 -122 41.5t-50 109.5zM459 1290q0 -29 18 -47t49 -18 q30 0 49 18t19 47q0 32 -19 51t-49 19q-31 0 -49 -19t-18 -51z" />
<glyph unicode="&#xe6;" horiz-adv-x="1941" d="M87 337q4 133 108 229q134 123 370 120q123 0 260 -72q2 2 2 4v17q0 82 -33 144t-86 96t-120.5 48.5t-135.5 7t-132 -34.5t-109 -71l-82 95q65 65 159.5 102.5t193 40t189.5 -22t160.5 -86.5t94.5 -151q62 119 170.5 188t249.5 70q162 1 286 -81.5t181.5 -222.5 t33.5 -304h-872q10 -140 109.5 -237t263.5 -97q88 0 168 37t131 106l129 -78q-153 -207 -428 -207q-254 0 -402 175q-78 -83 -186.5 -128t-212.5 -42q-237 -2 -365 125q-98 97 -95 230zM240 300q18 -89 115 -138q79 -39 192 -39q86 0 174 33.5t151 109.5q-50 109 -53 228 q-102 59 -252 59q-184 -1 -275 -95q-69 -71 -52 -158zM973 588h729q-12 144 -109 236.5t-245 95.5q-81 -1 -149 -28.5t-113.5 -74.5t-74 -105t-38.5 -124z" />
<glyph unicode="&#xe7;" horiz-adv-x="1056" d="M82 520q1 103 36 198.5t99.5 173t167 124t227.5 47.5q217 0 363 -143l-88 -109q-113 107 -277 107q-96 1 -179 -48t-135.5 -142.5t-53.5 -211.5q0 -73 23.5 -141t68 -124t117 -90t161.5 -34q77 0 151 30.5t132 84.5l90 -109q-146 -143 -354 -149l-35 -62q56 -2 107.5 -50 t48.5 -108q-4 -89 -64 -134.5t-137 -45.5q-74 0 -174 51l31 91q69 -39 131 -39q55 -1 79.5 33.5t3 70t-78.5 37.5q-34 0 -56 -12l-49 41l76 135q-138 21 -238 101.5t-147 191t-47 235.5z" />
<glyph unicode="&#xe8;" horiz-adv-x="1206" d="M84 522q0 102 34.5 198t98.5 173t166.5 124t226.5 48q162 1 286.5 -81.5t182 -222.5t33.5 -304h-872q10 -140 109 -237t263 -97q88 0 168 37t131 106l129 -78q-152 -206 -428 -206q-127 0 -230.5 46.5t-167 123.5t-97.5 172.5t-33 197.5zM242 592h725 q-12 144 -109.5 236.5t-245.5 95.5q-81 -1 -148 -28.5t-111.5 -75t-72.5 -105t-38 -123.5zM408 1432h190l133 -236h-151z" />
<glyph unicode="&#xe9;" horiz-adv-x="1206" d="M84 522q0 102 34.5 198t98.5 173t166.5 124t226.5 48q162 1 286.5 -81.5t182 -222.5t33.5 -304h-872q10 -140 109 -237t263 -97q88 0 168 37t131 106l129 -78q-152 -206 -428 -206q-127 0 -230.5 46.5t-167 123.5t-97.5 172.5t-33 197.5zM242 592h725 q-12 144 -109.5 236.5t-245.5 95.5q-81 -1 -148 -28.5t-111.5 -75t-72.5 -105t-38 -123.5zM516 1194l133 236h191l-172 -236h-152z" />
<glyph unicode="&#xea;" horiz-adv-x="1206" d="M84 522q0 102 34.5 198t98.5 173t166.5 124t226.5 48q162 1 286.5 -81.5t182 -222.5t33.5 -304h-872q10 -140 109 -237t263 -97q88 0 168 37t131 106l129 -78q-152 -206 -428 -206q-127 0 -230.5 46.5t-167 123.5t-97.5 172.5t-33 197.5zM242 592h725 q-12 144 -109.5 236.5t-245.5 95.5q-81 -1 -148 -28.5t-111.5 -75t-72.5 -105t-38 -123.5zM334 1178l180 239h207l180 -239h-151l-132 165h-4l-129 -165h-151z" />
<glyph unicode="&#xeb;" horiz-adv-x="1206" d="M84 522q0 102 34.5 198t98.5 173t166.5 124t226.5 48q162 1 286.5 -81.5t182 -222.5t33.5 -304h-872q10 -140 109 -237t263 -97q88 0 168 37t131 106l129 -78q-152 -206 -428 -206q-127 0 -230.5 46.5t-167 123.5t-97.5 172.5t-33 197.5zM242 592h725 q-12 144 -109.5 236.5t-245.5 95.5q-81 -1 -148 -28.5t-111.5 -75t-72.5 -105t-38 -123.5zM336 1235v166h182v-166h-182zM688 1235v166h182v-166h-182z" />
<glyph unicode="&#xec;" horiz-adv-x="471" d="M6 1436h191l133 -236h-152zM156 0v1049h161v-1049h-161z" />
<glyph unicode="&#xed;" horiz-adv-x="471" d="M135 1196l133 236h191l-172 -236h-152zM156 0v1049h161v-1049h-161z" />
<glyph unicode="&#xee;" horiz-adv-x="471" d="M-53 1192l180 240h207l180 -240h-152l-131 166h-4l-129 -166h-151zM156 0v1049h161v-1049h-161z" />
<glyph unicode="&#xef;" horiz-adv-x="471" d="M-18 1251v176h172v-176h-172zM156 0v1049h161v-1049h-161zM313 1251v176h172v-176h-172z" />
<glyph unicode="&#xf0;" horiz-adv-x="1234" d="M86 483q2 91 36.5 175t97.5 151.5t163 107.5t223 39q115 -2 210 -48.5t157 -135.5q-32 129 -106.5 234.5t-184.5 175.5l-264 -162l-60 84l217 131q-136 59 -311 59l15 140q260 0 452 -103l207 125l53 -86l-166 -100q318 -243 303 -783q-1 -99 -33.5 -187t-95 -158.5 t-164 -112t-229.5 -41.5q-127 0 -229.5 42.5t-165.5 113t-95 158t-30 181.5zM252 481q-2 -66 19 -126t63 -109.5t112 -79t160 -29.5t161.5 30t114 79.5t64 110t19.5 126.5q-2 64 -24.5 121.5t-65 104.5t-112.5 74.5t-157 27.5t-155.5 -28t-110.5 -75t-64 -105t-24 -122z" />
<glyph unicode="&#xf1;" horiz-adv-x="1241" d="M156 0v985q227 80 413 80q148 0 266 -52.5t190.5 -161t72.5 -257.5v-594h-160v594q0 80 -28.5 142.5t-77 100t-111 60t-132.5 26t-139.5 -6t-132.5 -31.5v-885h-161zM258 1278q61 115 163 140.5t206 -46.5q110 -74 190 58l92 -68q-47 -106 -145.5 -133t-194.5 37 q-127 81 -213 -52z" />
<glyph unicode="&#xf2;" d="M82 518q0 230 148 385.5t378 155.5q153 0 275 -72t188 -195t66 -274t-66 -274.5t-188 -196t-275 -72.5q-230 0 -378 156.5t-148 386.5zM242 518q0 -98 31 -176t82.5 -126t116.5 -73.5t136 -25.5q72 0 137 25.5t117.5 73.5t83.5 126t31 176t-31 175.5t-83.5 125t-117.5 72 t-137 24.5q-71 0 -135.5 -24.5t-117 -72t-83 -125t-30.5 -175.5zM365 1425h190l133 -235h-151z" />
<glyph unicode="&#xf3;" d="M82 518q0 230 148 385.5t378 155.5q153 0 275 -72t188 -195t66 -274t-66 -274.5t-188 -196t-275 -72.5q-230 0 -378 156.5t-148 386.5zM242 518q0 -98 31 -176t82.5 -126t116.5 -73.5t136 -25.5q72 0 137 25.5t117.5 73.5t83.5 126t31 176t-31 175.5t-83.5 125t-117.5 72 t-137 24.5q-71 0 -135.5 -24.5t-117 -72t-83 -125t-30.5 -175.5zM506 1194l133 236h190l-172 -236h-151z" />
<glyph unicode="&#xf4;" d="M82 518q0 230 148 385.5t378 155.5q153 0 275 -72t188 -195t66 -274t-66 -274.5t-188 -196t-275 -72.5q-230 0 -378 156.5t-148 386.5zM242 518q0 -98 31 -176t82.5 -126t116.5 -73.5t136 -25.5q72 0 137 25.5t117.5 73.5t83.5 126t31 176t-31 175.5t-83.5 125t-117.5 72 t-137 24.5q-71 0 -135.5 -24.5t-117 -72t-83 -125t-30.5 -175.5zM330 1176l180 239h207l180 -239h-152l-131 165h-4l-129 -165h-151z" />
<glyph unicode="&#xf5;" d="M82 518q0 230 148 385.5t378 155.5q153 0 275 -72t188 -195t66 -274t-66 -274.5t-188 -196t-275 -72.5q-230 0 -378 156.5t-148 386.5zM242 518q0 -98 31 -176t82.5 -126t116.5 -73.5t136 -25.5q72 0 137 25.5t117.5 73.5t83.5 126t31 176t-31 175.5t-83.5 125t-117.5 72 t-137 24.5q-71 0 -135.5 -24.5t-117 -72t-83 -125t-30.5 -175.5zM287 1257q61 115 162.5 141t205.5 -46q111 -74 191 57l92 -68q-47 -106 -145.5 -133t-194.5 37q-127 81 -213 -51z" />
<glyph unicode="&#xf6;" d="M82 518q0 230 148 385.5t378 155.5q153 0 275 -72t188 -195t66 -274t-66 -274.5t-188 -196t-275 -72.5q-230 0 -378 156.5t-148 386.5zM242 518q0 -98 31 -176t82.5 -126t116.5 -73.5t136 -25.5q72 0 137 25.5t117.5 73.5t83.5 126t31 176t-31 175.5t-83.5 125t-117.5 72 t-137 24.5q-71 0 -135.5 -24.5t-117 -72t-83 -125t-30.5 -175.5zM330 1251v174h184v-174h-184zM684 1251v174h184v-174h-184z" />
<glyph unicode="&#xf7;" horiz-adv-x="1239" d="M133 600v160h967v-160h-967zM512 186v187h186v-187h-186zM512 987v187h184v-187h-184z" />
<glyph unicode="&#xf8;" d="M82 518q0 230 148 385.5t378 155.5q129 0 234 -51l84 135h137l-123 -197q93 -74 145 -185.5t52 -242.5q0 -151 -66 -274.5t-188 -196t-275 -72.5q-118 0 -235 52l-80 -129h-139l118 192q-90 74 -140 186t-50 242zM242 518q0 -192 110 -299l412 664q-68 32 -156 32 q-71 0 -135.5 -24.5t-117 -72t-83 -125t-30.5 -175.5zM449 150q70 -33 159 -33q72 0 137 25.5t117.5 73.5t83.5 126t31 176q0 193 -115 301z" />
<glyph unicode="&#xf9;" horiz-adv-x="1239" d="M141 451v589h160v-589q0 -159 104.5 -246.5t264.5 -87.5q157 0 252 37v888h161v-989q-227 -80 -411 -80q-149 0 -267.5 54t-191 164t-72.5 260zM401 1434h191l133 -236h-152z" />
<glyph unicode="&#xfa;" horiz-adv-x="1239" d="M141 451v589h160v-589q0 -159 104.5 -246.5t264.5 -87.5q157 0 252 37v888h161v-989q-227 -80 -411 -80q-149 0 -267.5 54t-191 164t-72.5 260zM506 1194l133 236h190l-172 -236h-151z" />
<glyph unicode="&#xfb;" horiz-adv-x="1239" d="M141 451v589h160v-589q0 -159 104.5 -246.5t264.5 -87.5q157 0 252 37v888h161v-989q-227 -80 -411 -80q-149 0 -267.5 54t-191 164t-72.5 260zM330 1198l180 240h207l180 -240h-152l-131 166h-4l-129 -166h-151z" />
<glyph unicode="&#xfc;" horiz-adv-x="1239" d="M141 451v589h160v-589q0 -159 104.5 -246.5t264.5 -87.5q157 0 252 37v888h161v-989q-227 -80 -411 -80q-149 0 -267.5 54t-191 164t-72.5 260zM354 1249v160h181v-160h-181zM700 1249v160h181v-160h-181z" />
<glyph unicode="&#xfd;" horiz-adv-x="1011" d="M4 1038h172l330 -852l325 852h173l-482 -1243q-78 -209 -350 -184v133q87 -10 131.5 17.5t67.5 84.5l57 150zM403 1192l134 235h190l-172 -235h-152z" />
<glyph unicode="&#xfe;" horiz-adv-x="1181" d="M156 -395v1829h159v-426q111 57 242 57q129 0 233.5 -46t169.5 -123t100 -172.5t36 -199.5q1 -83 -20 -162.5t-65 -150t-107 -123.5t-152.5 -84t-194.5 -31q-129 0 -242 58v-426h-159zM315 162q113 -45 242 -45q91 0 166 35t121.5 92.5t71.5 130t24 149.5 q-1 103 -44 192.5t-132 148.5t-207 59q-124 0 -242 -47v-715z" />
<glyph unicode="&#xff;" horiz-adv-x="1011" d="M4 1038h172l330 -852l325 852h173l-482 -1243q-78 -209 -350 -184v133q87 -10 131.5 17.5t67.5 84.5l57 150zM246 1257v170h186v-170h-186zM604 1257v170h187v-170h-187z" />
<glyph unicode="&#x152;" horiz-adv-x="1910" d="M98 715q0 149 58 286.5t156 238.5t233.5 161.5t283.5 60.5q96 0 195 -26h766v-158h-596v-479h590v-158h-590l-2 -479h598v-160h-754q-102 -31 -207 -31q-198 0 -366.5 101.5t-266.5 272.5t-98 370zM268 715q0 -240 140 -402q111 -128 274 -175.5t342 9.5v1135 q-156 56 -321 15.5t-281 -162.5q-154 -167 -154 -420z" />
<glyph unicode="&#x153;" horiz-adv-x="2101" d="M82 522q0 151 66 275t187 197t273 73q142 0 266.5 -71t184.5 -195q64 121 178 193t268 73q154 0 279 -84q263 -167 233 -524h-882q0 -2 -2 -2q22 -137 119.5 -231.5t252.5 -94.5q89 0 168.5 37t132.5 106l129 -77q-153 -207 -430 -207q-146 0 -264.5 69t-183.5 197 q-65 -128 -184.5 -201t-264.5 -73q-230 0 -378 155t-148 385zM242 522q0 -98 31 -176t83 -125.5t116.5 -72.5t135.5 -25q72 0 137 25t117.5 72.5t83.5 125.5t31 176t-31 176.5t-83.5 126.5t-117.5 73.5t-137 25.5q-71 0 -136 -25.5t-116.5 -73.5t-82.5 -126.5t-31 -176.5z M1135 594h727q-12 144 -109.5 236.5t-245.5 93.5q-81 0 -148.5 -27.5t-112.5 -75t-73 -105t-38 -122.5z" />
<glyph unicode="&#x178;" horiz-adv-x="1185" d="M18 1444h193l381 -694q43 78 120 218.5t140.5 257t118.5 218.5h194l-491 -873v-571h-166v571q-66 116 -234.5 418.5t-255.5 454.5zM324 1587v201h184v-201h-184zM678 1587v201h184v-201h-184z" />
<glyph unicode="&#x2c6;" horiz-adv-x="1021" d="M229 1563l181 239h206l181 -239h-152l-131 166h-4l-129 -166h-152z" />
<glyph unicode="&#x2dc;" horiz-adv-x="983" d="M166 1606q61 115 163 140.5t206 -46.5q110 -74 190 57l92 -67q-47 -106 -145.5 -133.5t-194.5 36.5q-127 81 -213 -51z" />
<glyph unicode="&#x2000;" horiz-adv-x="911" />
<glyph unicode="&#x2001;" horiz-adv-x="1823" />
<glyph unicode="&#x2002;" horiz-adv-x="911" />
<glyph unicode="&#x2003;" horiz-adv-x="1823" />
<glyph unicode="&#x2004;" horiz-adv-x="607" />
<glyph unicode="&#x2005;" horiz-adv-x="455" />
<glyph unicode="&#x2006;" horiz-adv-x="303" />
<glyph unicode="&#x2007;" horiz-adv-x="303" />
<glyph unicode="&#x2008;" horiz-adv-x="227" />
<glyph unicode="&#x2009;" horiz-adv-x="364" />
<glyph unicode="&#x200a;" horiz-adv-x="101" />
<glyph unicode="&#x2010;" horiz-adv-x="917" d="M184 557v162h553v-162h-553z" />
<glyph unicode="&#x2011;" horiz-adv-x="917" d="M184 557v162h553v-162h-553z" />
<glyph unicode="&#x2012;" horiz-adv-x="917" d="M184 557v162h553v-162h-553z" />
<glyph unicode="&#x2013;" horiz-adv-x="1406" d="M184 504v158h1043v-158h-1043z" />
<glyph unicode="&#x2014;" horiz-adv-x="1755" d="M184 504v160h1409v-160h-1409z" />
<glyph unicode="&#x2018;" horiz-adv-x="464" d="M90 1036l160 432h135l-113 -432h-182z" />
<glyph unicode="&#x2019;" horiz-adv-x="448" d="M90 1038l113 432h182l-160 -432h-135z" />
<glyph unicode="&#x201a;" horiz-adv-x="518" d="M45 -223l133 442h189l-168 -442h-154z" />
<glyph unicode="&#x201c;" horiz-adv-x="755" d="M90 1036l160 432h135l-113 -432h-182zM379 1036l160 432h135l-113 -432h-182z" />
<glyph unicode="&#x201d;" horiz-adv-x="727" d="M90 1038l113 432h178l-156 -432h-135zM381 1038l113 432h178l-156 -432h-135z" />
<glyph unicode="&#x201e;" horiz-adv-x="811" d="M45 -223l133 442h182l-167 -442h-148zM369 -223l133 442h180l-166 -442h-147z" />
<glyph unicode="&#x2022;" horiz-adv-x="815" d="M147 596q0 115 79.5 194.5t195.5 79.5q114 0 193 -79.5t79 -194.5t-79 -194.5t-193 -79.5q-116 0 -195.5 79.5t-79.5 194.5z" />
<glyph unicode="&#x2026;" horiz-adv-x="1435" d="M156 -4v223h204v-223h-204zM594 -4v223h205v-223h-205zM1047 -4v223h204v-223h-204z" />
<glyph unicode="&#x202f;" horiz-adv-x="364" />
<glyph unicode="&#x2039;" horiz-adv-x="702" d="M90 578l336 421h192l-335 -421l335 -420h-192z" />
<glyph unicode="&#x203a;" horiz-adv-x="708" d="M92 999h191l335 -421l-335 -420h-187l330 420z" />
<glyph unicode="&#x205f;" horiz-adv-x="455" />
<glyph unicode="&#x20ac;" horiz-adv-x="1343" d="M53 551l31 137h102q-2 8 -2 29q0 9 1 28.5t1 28.5h-125l29 141h119q28 113 87.5 210.5t146.5 174t209.5 120.5t265.5 44q165 0 309 -69l-68 -142q-112 56 -241 56q-203 -3 -340.5 -113t-192.5 -281h596l-29 -141h-594q-2 -18 -2 -57v-29h568l-27 -137h-520 q23 -88 68.5 -163.5t112 -134.5t159.5 -92.5t201 -33.5q140 0 274 72l76 -138q-164 -90 -350 -90q-148 0 -274 47t-214 128t-145.5 184t-81.5 221h-150z" />
<glyph unicode="&#x2122;" horiz-adv-x="1789" d="M51 1305v125h594v-125h-227v-650h-139v650h-228zM780 655v772h154l285 -503l290 503h148v-772h-141l6 553l-246 -454h-113l-245 454l4 -553h-142z" />
<glyph unicode="&#xe000;" horiz-adv-x="1044" d="M0 0v1044h1044v-1044h-1044z" />
</font>
</defs>
</svg>
